<?xml version="1.0" standalone="no"?>
<!DOCTYPE svg PUBLIC "-//W3C//DTD SVG 20010904//EN"
 "http://www.w3.org/TR/2001/REC-SVG-20010904/DTD/svg10.dtd">
<svg version="1.0" xmlns="http://www.w3.org/2000/svg"
 width="32.000000pt" height="32.000000pt" viewBox="0 0 32.000000 32.000000"
 preserveAspectRatio="xMidYMid meet">

<g transform="translate(0.000000,32.000000) scale(0.100000,-0.100000)"
fill="#000000" stroke="none">
<path d="M192 250 c-28 -40 -56 -54 -46 -22 5 15 4 15 -6 -1 -6 -10 -9 -25 -6
-33 3 -9 1 -12 -4 -9 -6 4 -10 -9 -10 -30 0 -24 4 -34 11 -29 8 5 8 1 0 -14
-15 -27 -14 -32 5 -32 11 0 14 -6 9 -20 -9 -28 10 -25 34 7 28 35 36 69 22 99
-6 15 -7 31 -2 42 12 25 30 82 25 82 -2 0 -17 -18 -32 -40z"/>
</g>
</svg>
