<?xml version="1.0" standalone="no"?>
<!DOCTYPE svg PUBLIC "-//W3C//DTD SVG 20010904//EN"
 "http://www.w3.org/TR/2001/REC-SVG-20010904/DTD/svg10.dtd">
<svg version="1.0" xmlns="http://www.w3.org/2000/svg"
 width="601.000000pt" height="255.000000pt" viewBox="0 0 601.000000 255.000000"
 preserveAspectRatio="xMidYMid meet">

<g transform="translate(0.000000,255.000000) scale(0.100000,-0.100000)"
fill="#000000" stroke="none">
<path d="M480 2526 c0 -18 9 -29 32 -41 21 -10 34 -12 36 -5 2 5 10 10 18 10
22 0 64 30 64 46 0 11 -18 14 -75 14 -73 0 -75 -1 -75 -24z"/>
<path d="M1030 2541 c0 -5 9 -25 19 -43 23 -38 19 -103 -4 -72 -9 13 -14 14
-20 5 -4 -7 -2 -18 4 -24 6 -6 11 -22 11 -34 0 -21 -4 -24 -40 -21 -50 2 -67
-12 -49 -41 19 -29 57 -20 91 21 l27 33 1 -45 c0 -26 6 -52 13 -59 10 -11 9
-12 -2 -6 -9 5 -12 4 -7 -3 4 -7 14 -12 23 -12 12 0 13 -3 4 -13 -9 -11 -5
-14 18 -15 17 0 39 -5 50 -11 11 -6 27 -11 37 -11 13 0 14 3 4 15 -7 8 -9 23
-6 32 6 15 8 15 17 3 7 -11 9 -8 8 15 -2 17 5 44 14 62 10 18 18 45 19 60 2
15 14 41 28 56 13 16 30 47 37 68 13 47 7 52 -53 47 -29 -2 -42 -9 -51 -28 -9
-19 -9 -26 0 -32 8 -5 6 -9 -6 -14 -23 -8 -28 -3 -36 38 l-7 33 -72 3 c-43 2
-72 -1 -72 -7z m190 -128 c0 -5 -5 -15 -10 -23 -8 -13 -10 -13 -10 2 0 9 -8
19 -17 21 -11 3 -7 5 10 6 15 0 27 -2 27 -6z m0 -83 c0 -11 -4 -20 -9 -20 -5
0 -7 9 -4 20 3 11 7 20 9 20 2 0 4 -9 4 -20z m-70 -60 c0 -5 -4 -10 -9 -10 -6
0 -13 5 -16 10 -3 6 1 10 9 10 9 0 16 -4 16 -10z"/>
<path d="M1495 2524 c-14 -15 -25 -34 -25 -43 0 -17 -33 -51 -49 -51 -6 0 -11
-12 -13 -27 -2 -21 -11 -29 -44 -40 -45 -15 -49 -25 -58 -125 -2 -20 -7 -41
-10 -46 -3 -6 23 -11 63 -14 47 -2 76 -9 89 -21 22 -20 32 -22 32 -4 0 6 14
41 32 77 17 36 31 74 30 85 -1 16 0 17 4 3 6 -20 34 -25 34 -6 0 9 3 9 11 1 8
-8 19 -8 40 0 21 8 37 8 62 -1 53 -19 71 -16 63 11 -4 12 -9 33 -12 47 -12 60
-30 92 -68 118 -22 15 -48 35 -58 45 -29 27 -94 23 -123 -9z"/>
<path d="M1735 2515 c38 -19 82 -49 96 -67 18 -22 36 -33 55 -33 32 -2 49 -26
57 -82 7 -43 14 -52 37 -46 36 10 43 28 30 86 -7 30 -11 60 -9 66 6 17 75 -32
71 -50 -3 -11 -1 -11 9 -2 10 10 9 16 -2 29 -8 10 -9 15 -2 11 28 -17 27 71
-2 103 -17 19 -30 20 -214 20 l-196 -1 70 -34z"/>
<path d="M270 2453 c0 -11 -7 -14 -27 -9 -18 4 -23 3 -15 -2 11 -7 7 -11 -13
-16 -14 -4 -31 -4 -37 0 -7 4 -8 3 -4 -4 4 -6 -12 -22 -39 -37 -48 -29 -61
-51 -20 -35 23 9 25 7 25 -18 0 -31 -24 -61 -70 -88 -37 -23 -38 -32 -2 -36
27 -4 26 -4 -8 -14 l-35 -11 43 -22 c23 -12 42 -25 42 -30 0 -11 -27 -33 -59
-48 l-26 -11 25 -1 25 -1 -29 -18 c-43 -26 -45 -71 -4 -130 18 -26 33 -48 34
-50 1 -1 13 3 27 9 23 10 24 13 11 26 -8 8 -26 30 -40 49 -15 18 -30 32 -34
29 -5 -3 -12 0 -16 6 -4 8 -3 9 4 5 16 -10 15 7 -1 23 -10 11 -8 12 8 8 49
-14 152 -8 205 12 60 22 189 29 234 11 14 -5 26 -6 26 -1 0 16 -66 106 -76
104 -6 -1 -10 9 -10 22 0 13 3 22 7 19 4 -2 10 0 14 6 10 15 23 12 28 -7 3
-11 5 -7 6 10 0 16 5 26 11 22 6 -3 10 2 10 12 0 14 -7 19 -27 18 -22 0 -27 4
-25 19 2 10 -1 15 -6 12 -6 -3 -8 2 -5 14 3 11 0 27 -8 36 -7 8 -8 14 -3 13
40 -7 44 17 13 68 -28 45 -38 34 -10 -12 27 -46 27 -47 -6 -33 -16 6 -53 14
-83 18 l-55 7 60 2 c59 2 60 2 36 19 -14 9 -42 24 -63 34 -34 15 -38 15 -38 1z
m-169 -550 c13 -16 12 -17 -3 -4 -17 13 -22 21 -14 21 2 0 10 -8 17 -17z"/>
<path d="M1880 2390 c0 -5 9 -14 21 -20 19 -11 20 -10 9 9 -11 22 -30 29 -30
11z"/>
<path d="M1790 2300 c6 -11 17 -20 26 -20 12 0 12 4 4 20 -6 11 -17 20 -26 20
-12 0 -12 -4 -4 -20z"/>
<path d="M493 2169 c8 -21 13 -26 15 -14 5 21 -5 45 -17 45 -5 0 -4 -13 2 -31z"/>
<path d="M998 2172 c-1 -4 -26 -22 -54 -40 -53 -33 -55 -38 -70 -127 -8 -47
25 -90 84 -109 28 -10 53 -24 56 -32 9 -23 25 -16 40 19 l14 32 0 -50 c0 -28
4 -51 11 -53 6 -2 11 -9 11 -16 0 -16 72 -38 96 -29 13 5 16 3 11 -9 -3 -10 0
-19 9 -22 8 -3 14 -4 14 -3 0 1 -8 25 -18 52 l-18 50 25 50 c14 27 41 63 59
78 17 16 32 32 32 36 0 16 -81 43 -112 37 -33 -6 -33 -6 -11 12 29 24 41 96
18 118 -15 15 -18 14 -48 -16 -25 -26 -33 -29 -42 -18 -12 17 -71 39 -79 31
-3 -4 -6 -1 -6 5 0 13 -16 16 -22 4z m212 -257 c0 -8 -4 -15 -9 -15 -13 0 -22
16 -14 24 11 11 23 6 23 -9z"/>
<path d="M1379 2166 c-2 -2 -22 -6 -44 -8 -52 -5 -59 -32 -19 -65 28 -23 28
-24 10 -38 -10 -8 -15 -19 -10 -26 5 -9 11 -7 21 6 12 18 13 18 13 1 0 -12 5
-16 16 -12 9 3 20 6 26 6 6 0 7 7 4 16 -3 8 -2 13 3 10 4 -3 14 6 21 19 7 14
19 25 26 25 7 0 -2 16 -22 35 -36 36 -38 38 -45 31z"/>
<path d="M5577 2141 c-15 -8 -27 -20 -27 -26 0 -5 -5 -3 -10 5 -14 22 -13 -55
1 -82 9 -17 6 -25 -20 -48 -29 -27 -50 -75 -37 -87 3 -4 6 3 6 14 0 22 51 83
69 83 6 0 11 -19 11 -43 0 -32 6 -49 21 -63 17 -15 20 -28 17 -66 -2 -36 0
-47 10 -43 15 5 15 3 2 -29 -12 -31 -110 -80 -155 -77 -20 2 -37 -5 -50 -19
-13 -15 -15 -19 -4 -15 9 3 24 -3 34 -15 19 -21 19 -22 -5 -66 -28 -51 -51
-74 -26 -26 18 35 19 42 8 42 -4 0 -18 -18 -32 -40 -14 -22 -28 -40 -32 -40
-5 0 -8 -4 -8 -9 0 -10 18 -9 40 3 8 4 4 -2 -8 -13 -19 -17 -26 -18 -36 -8
-20 20 -24 41 -9 55 19 19 16 32 -8 32 -11 0 -18 -4 -14 -9 3 -5 1 -12 -5 -16
-5 -3 -10 0 -11 7 -1 27 -18 -29 -18 -64 -1 -44 7 -68 24 -68 6 0 22 -8 33
-19 27 -22 30 -82 6 -102 -17 -14 -17 -21 12 -149 9 -41 17 -82 17 -90 0 -8 7
-20 16 -27 14 -11 14 -12 -1 -13 -24 0 -45 36 -53 93 -3 26 -10 47 -15 47 -12
0 -30 -34 -30 -57 0 -10 -13 -46 -29 -80 -18 -37 -27 -70 -24 -83 4 -16 0 -23
-16 -27 -35 -9 -52 -53 -39 -96 6 -20 15 -34 20 -31 4 3 11 -2 14 -10 3 -9 15
-16 25 -16 10 0 19 -5 19 -11 0 -5 5 -7 11 -4 5 4 20 -1 31 -12 12 -10 18 -12
14 -5 -4 6 -3 12 2 12 5 0 7 19 5 41 -4 29 -2 39 6 35 6 -4 11 -2 11 3 0 6 11
11 25 11 17 0 25 6 25 18 0 9 21 36 45 60 36 35 45 50 45 78 0 28 -4 34 -21
34 -26 0 -20 22 10 35 19 8 21 15 16 45 -4 27 -3 31 5 18 6 -10 14 -41 17 -69
5 -41 10 -52 29 -60 26 -9 31 -24 12 -32 -7 -3 -3 -6 10 -6 17 -1 22 5 22 23
0 14 5 28 10 31 6 4 10 -5 10 -19 0 -24 4 -26 43 -26 64 0 91 -34 93 -117 1
-34 5 -67 9 -72 3 -6 0 -11 -7 -11 -10 0 -10 -2 1 -9 8 -5 9 -11 3 -15 -6 -3
-8 -15 -5 -25 9 -35 -129 -51 -213 -26 -18 6 -24 0 -38 -36 -34 -83 -32 -151
8 -300 41 -155 43 -170 18 -139 -24 29 -44 18 -36 -18 6 -22 29 -84 61 -159 4
-10 -38 -13 -190 -13 l-195 0 -6 27 c-3 16 -7 58 -8 95 -1 38 -6 68 -11 68 -5
0 -8 -28 -7 -62 3 -103 1 -128 -10 -128 -16 0 -13 235 4 249 15 13 20 185 5
175 -5 -3 -9 0 -9 5 0 6 5 11 10 11 6 0 10 15 10 33 0 17 7 63 15 102 8 38 12
80 9 92 -6 22 -7 22 -28 -9 -19 -29 -58 -56 -42 -29 4 6 2 11 -4 11 -6 0 -9 4
-6 8 2 4 -7 9 -22 10 -14 1 -29 8 -34 15 -6 9 -8 9 -8 0 0 -21 -14 -15 -54 23
l-38 36 6 -29 c17 -86 25 -243 21 -410 -5 -230 8 -219 30 26 8 91 15 49 15
-95 1 -82 3 -166 6 -187 l6 -38 -433 2 c-338 1 -435 4 -445 14 -7 7 -10 15 -7
19 3 3 -4 28 -16 55 -11 27 -26 85 -31 128 -6 43 -14 87 -19 98 -17 41 -31 92
-31 112 0 11 -11 49 -24 84 -24 65 -42 174 -27 165 5 -3 11 -31 14 -63 3 -32
14 -78 26 -103 l20 -45 -6 161 c-4 116 -3 163 6 168 16 10 15 49 -1 40 -10 -6
-10 -4 0 7 6 7 12 23 12 36 0 13 4 23 9 23 5 0 11 17 13 38 3 20 17 87 31 149
36 149 37 199 8 246 -23 38 -50 53 -31 18 5 -11 10 -37 10 -58 l-1 -38 -14 33
c-14 31 -17 33 -55 28 -23 -2 -53 -12 -67 -21 -14 -9 -23 -12 -19 -7 3 6 0 16
-7 24 -7 7 -16 21 -20 32 -7 18 -8 17 -27 -4 l-20 -23 6 29 c4 21 1 34 -10 44
-14 11 -20 10 -41 -10 -16 -15 -21 -26 -14 -31 8 -4 6 -16 -5 -37 -20 -39 -20
-48 0 -31 15 12 15 10 0 -25 -9 -21 -16 -40 -16 -43 0 -2 -4 -2 -9 1 -4 3 -21
-15 -37 -39 -16 -26 -31 -40 -35 -34 -12 21 -98 -157 -123 -256 -3 -11 -3 3 0
30 3 28 14 74 25 104 20 57 18 82 -2 37 -7 -14 -16 -26 -22 -26 -5 0 -6 -7 -3
-16 4 -9 2 -13 -5 -8 -8 4 -9 -1 -4 -17 5 -19 4 -21 -4 -9 -9 12 -11 13 -11 1
0 -8 -3 -12 -6 -9 -7 8 30 80 73 143 l34 50 -33 -36 c-18 -19 -38 -44 -44 -54
-15 -27 -61 -12 -105 36 -20 21 -38 39 -41 39 -3 0 1 -23 8 -51 7 -28 18 -87
24 -132 6 -45 20 -114 31 -153 10 -39 17 -78 15 -85 -2 -8 -7 -27 -10 -42 -5
-22 -10 -26 -23 -19 -9 5 -24 7 -33 5 -10 -3 -21 0 -24 6 -16 25 -22 7 -18
-54 5 -69 -5 -82 -32 -43 -11 15 -16 17 -16 8 0 -8 7 -24 15 -34 12 -15 12
-22 3 -27 -8 -5 -19 2 -30 19 -16 24 -18 25 -18 6 0 -57 76 -284 95 -284 10 0
-5 172 -17 194 -10 18 -9 18 15 0 21 -16 26 -30 32 -94 11 -129 2 -120 113
-114 69 4 113 1 152 -9 54 -15 55 -15 32 3 -19 16 -77 40 -130 56 -10 3 -3 19
22 53 20 27 36 53 36 59 0 6 4 12 10 14 5 2 12 23 14 48 2 25 7 57 11 72 5 18
3 28 -4 28 -6 0 -12 -15 -12 -32 -3 -81 -18 54 -23 202 -2 85 -2 139 1 120 5
-35 5 -35 19 20 8 30 24 84 36 120 11 36 22 76 22 90 1 14 7 24 14 23 7 -2 9
4 5 14 -5 12 -3 14 7 8 8 -5 11 -4 6 3 -10 16 14 61 30 55 10 -4 12 0 8 13 -4
11 -4 16 1 12 4 -4 14 -3 21 3 9 8 15 -3 24 -46 14 -68 45 -95 87 -76 17 8 29
8 38 1 9 -7 16 -6 25 5 16 20 40 19 40 -1 0 -8 -4 -12 -10 -9 -5 3 -7 0 -4 -8
3 -8 -2 -17 -11 -21 -9 -3 -13 -11 -9 -17 4 -8 3 -9 -4 -5 -7 4 -12 2 -12 -4
0 -6 -5 -8 -11 -5 -6 4 -8 13 -5 20 3 9 -2 11 -15 8 -18 -5 -18 -8 -6 -27 12
-18 11 -27 -8 -69 -21 -43 -23 -46 -30 -25 -4 13 -6 46 -5 74 1 42 -2 55 -21
73 -38 35 -48 28 -25 -17 8 -15 16 -38 17 -52 6 -37 -27 -28 -78 23 -42 40
-42 40 -51 17 -19 -50 15 -90 75 -90 8 0 26 -13 40 -30 13 -16 33 -30 44 -30
15 0 19 -7 19 -35 0 -19 -2 -35 -4 -35 -3 0 -19 13 -37 30 -18 16 -34 28 -36
27 -6 -7 23 -57 33 -57 6 0 17 -12 24 -26 11 -19 11 -30 3 -43 -8 -13 -8 -22
-1 -29 7 -7 6 -17 -2 -31 l-11 -22 -20 23 -19 23 -20 -24 c-11 -13 -20 -34
-20 -47 0 -31 23 -87 50 -121 11 -14 19 -35 19 -47 -1 -17 -2 -18 -6 -3 -4 15
-7 14 -26 -10 -20 -24 -22 -39 -22 -162 0 -143 5 -220 14 -219 19 2 22 -4 10
-20 -11 -14 -11 -15 1 -4 20 17 35 15 20 -3 -15 -18 1 -20 18 -3 15 15 18 11
27 -39 l7 -43 -45 0 c-39 0 -46 3 -50 22 l-4 23 -2 -22 c-1 -19 -7 -23 -36
-23 l-35 0 -1 68 -2 67 -15 -68 c-24 -99 -42 -89 -42 22 l0 89 31 7 c41 9 32
27 -22 43 -48 15 -271 10 -344 -7 -22 -6 -41 -9 -42 -7 -2 1 -8 49 -13 107
-14 140 -38 233 -125 494 -98 290 -127 402 -130 500 -2 44 -4 90 -4 103 -1 12
-5 22 -10 22 -5 0 -12 -10 -15 -22 -6 -21 -8 -20 -22 14 -9 21 -23 38 -31 38
-11 0 -13 7 -9 28 4 15 9 40 12 56 3 16 6 33 7 38 3 16 -47 48 -86 55 -58 9
-121 -20 -159 -73 -17 -24 -32 -54 -34 -66 -1 -13 -7 -43 -13 -68 -6 -25 -10
-76 -10 -115 l0 -70 17 30 c16 30 17 30 20 6 3 -18 -10 -38 -57 -85 -57 -58
-81 -98 -81 -134 0 -9 9 1 19 23 25 54 139 168 145 146 15 -53 17 -83 6 -96
-7 -8 -10 -26 -8 -40 3 -13 2 -23 -2 -20 -6 4 -28 -47 -35 -84 -5 -27 -28 -59
-76 -106 -40 -39 -114 -137 -138 -183 -8 -15 -10 -42 -5 -78 6 -48 9 -55 25
-51 12 3 19 0 19 -9 0 -19 -58 -76 -71 -69 -31 20 -64 -66 -40 -104 8 -12 13
-12 35 2 41 27 46 22 46 -55 0 -39 5 -101 12 -137 l12 -66 7 60 c8 72 23 128
49 175 l19 35 -6 -91 c-5 -77 -2 -103 17 -165 12 -41 31 -91 41 -111 10 -20
19 -40 19 -43 0 -3 -77 -5 -170 -5 l-171 0 -19 45 c-18 41 -19 57 -11 156 5
60 14 116 21 124 8 10 12 70 13 189 1 98 5 169 10 163 5 -7 7 -1 4 16 -3 21
-1 27 9 23 17 -7 18 6 2 23 -7 8 -1 6 15 -4 l28 -18 -11 29 c-12 30 -5 114 9
114 19 0 18 47 -2 147 l-21 106 29 23 30 24 -32 0 c-26 0 -33 5 -42 32 -9 24
-8 34 1 40 9 5 5 8 -10 8 -13 0 -37 -13 -53 -30 -24 -23 -34 -28 -48 -20 -16
8 -22 1 -43 -58 l-25 -67 36 -7 c59 -11 72 -10 69 8 -2 10 3 19 9 21 9 3 11
-5 8 -29 -4 -21 -2 -26 3 -15 6 14 13 5 36 -45 28 -61 33 -92 16 -113 -17 -21
-27 -81 -18 -105 5 -13 6 -21 2 -17 -4 4 -12 -3 -19 -16 -8 -15 -8 -24 -1 -29
7 -5 3 -8 -9 -8 -17 0 -17 -2 -5 -10 19 -12 17 -12 -50 5 -30 7 -46 14 -35 15
l20 1 -20 9 c-18 8 -18 9 5 10 20 1 17 4 -18 16 -27 10 -70 14 -119 12 l-77
-3 -33 -80 c-32 -79 -42 -114 -23 -85 6 9 10 11 10 3 0 -7 27 -30 60 -52 34
-23 60 -35 60 -27 0 30 146 156 181 156 10 0 19 -3 19 -7 1 -5 7 -75 14 -158
8 -82 12 -153 9 -157 -2 -4 -29 -24 -59 -44 -31 -20 -60 -48 -65 -62 -12 -32
24 -182 55 -227 18 -27 18 -29 1 -15 -14 11 -19 12 -22 3 -4 -10 -38 -13 -124
-13 l-120 0 -14 34 c-14 33 -13 37 34 133 43 85 47 99 34 108 -67 43 -97 74
-109 110 -12 40 -12 40 -8 -25 13 -224 19 -273 40 -343 9 -29 -67 -23 -96 8
-30 32 -40 32 -40 0 0 -24 -2 -25 -74 -25 -74 0 -74 0 -81 30 -4 16 -12 28
-18 27 -7 -1 -12 7 -12 18 -1 11 -4 25 -8 32 -10 15 -74 183 -92 240 -8 24
-10 43 -5 43 5 0 14 -15 19 -33 l9 -32 1 37 c1 27 5 36 14 32 16 -6 38 116 30
160 -9 46 -23 28 -24 -31 0 -32 -3 -66 -7 -75 -4 -10 -8 58 -10 150 -2 92 -5
187 -7 212 -1 25 1 50 5 55 14 19 19 56 7 48 -7 -4 -5 1 3 12 8 10 13 19 10
21 -3 1 -2 6 3 10 4 4 7 1 7 -7 0 -12 2 -12 10 1 6 9 5 17 -3 22 -8 5 -5 8 8
8 16 0 17 2 6 9 -12 8 -12 14 2 43 l16 33 0 -68 c-1 -37 3 -73 9 -80 5 -6 12
-29 16 -49 7 -40 14 -46 34 -26 14 14 17 72 3 64 -5 -3 -8 11 -8 32 0 20 -1
80 -3 133 -1 53 0 101 4 107 3 6 -4 18 -16 26 -26 18 -38 20 -38 7 0 -29 -133
-121 -174 -121 -18 0 -105 43 -150 73 -42 30 -47 12 -40 -139 l7 -130 -67
-125 -66 -124 0 110 c-1 61 -4 128 -8 150 -8 39 -8 38 -25 -45 -20 -99 -20
-103 -7 -95 5 3 2 -18 -6 -46 -26 -85 -33 -99 -51 -99 -11 0 -14 3 -7 8 18 11
42 103 43 158 0 30 16 101 38 170 41 130 52 231 33 298 -6 23 -15 77 -20 121
-10 93 -31 121 -86 112 -26 -4 -31 -2 -27 12 5 19 -43 41 -93 42 -27 0 -28 1
-6 9 17 7 22 17 21 42 l-1 33 -8 -30 -7 -30 -9 40 -9 40 -6 -45 c-6 -42 -6
-43 -8 -10 -2 40 -25 79 -35 58 -5 -10 -7 -10 -12 0 -9 19 -22 14 -26 -10 -4
-20 -6 -18 -15 12 l-11 35 -1 -30 c-1 -17 8 -48 19 -69 10 -22 17 -42 15 -46
-2 -4 -25 -15 -50 -25 l-46 -17 28 -15 c15 -8 29 -16 31 -18 3 -2 -21 -16 -51
-31 -69 -34 -76 -50 -85 -184 -5 -74 -11 -105 -21 -108 -11 -4 -12 8 -7 64 4
38 9 94 11 124 l5 55 -16 -55 c-25 -88 -36 -111 -49 -106 -15 5 -38 -80 -41
-157 -2 -38 -10 -69 -24 -92 -12 -19 -23 -35 -24 -35 -1 0 6 46 16 103 11 56
17 124 15 150 -3 29 -1 43 4 35 6 -8 9 0 9 25 0 21 7 70 16 109 13 58 14 83 5
145 -14 97 -14 150 2 156 7 3 6 6 -5 6 -9 1 -20 -4 -24 -11 -4 -7 -6 -102 -5
-213 1 -110 1 -198 -2 -195 -2 3 -7 92 -11 199 -4 106 -8 199 -9 205 -1 6 4
10 12 8 9 -2 12 4 9 16 -3 12 2 23 14 31 15 10 18 10 13 0 -5 -7 -3 -10 6 -7
8 3 13 12 11 19 -2 8 -1 11 3 7 4 -4 14 0 23 8 8 9 23 13 33 11 11 -3 19 -1
19 4 0 5 9 9 20 9 17 0 20 7 20 43 0 53 -22 87 -55 85 -13 -1 -23 -7 -22 -13
1 -5 -4 -9 -10 -8 -7 2 -12 -3 -10 -10 1 -6 -4 -11 -10 -10 -7 2 -12 0 -11 -5
3 -9 -53 -92 -62 -92 -4 0 -8 -10 -8 -22 -1 -13 -9 -53 -20 -90 -14 -52 -16
-84 -11 -145 3 -43 10 -132 13 -198 l7 -120 -36 53 c-20 29 -63 103 -96 164
-83 155 -111 191 -71 96 20 -52 116 -240 139 -274 8 -13 11 -24 6 -24 -16 0
-119 114 -190 210 -39 52 -89 113 -113 135 l-42 40 6 -45 c3 -25 6 -61 7 -80
1 -24 3 -28 6 -12 11 56 44 -1 39 -68 -3 -27 -2 -50 2 -50 4 0 8 -12 9 -27 0
-16 -2 -21 -7 -14 -12 20 -22 -36 -10 -59 5 -10 42 -35 81 -54 l72 -36 -55 0
c-84 0 -99 -21 -123 -182 -2 -15 -11 -48 -19 -73 -26 -75 -22 -84 27 -66 18 7
27 22 36 55 6 25 15 46 20 46 5 0 12 8 14 17 3 10 4 3 3 -16 0 -21 4 -36 13
-39 9 -3 11 0 6 8 -6 9 -3 9 15 0 17 -9 20 -14 9 -20 -9 -6 -13 -36 -15 -102
-1 -51 -6 -106 -13 -121 -15 -39 -15 -40 20 -21 l32 16 -7 -33 c-3 -19 -21
-64 -39 -101 -18 -37 -27 -62 -20 -56 17 14 17 -2 -1 -27 -7 -11 -31 -63 -52
-115 -33 -82 -38 -105 -37 -170 1 -79 4 -97 16 -117 5 -8 -5 -13 -35 -16 -24
-2 1303 -4 2947 -4 1645 0 2977 2 2960 4 -38 6 -55 20 -55 45 0 10 -6 18 -12
16 -7 -2 -29 9 -49 25 -20 15 -41 27 -47 27 -16 0 -15 -34 2 -75 l15 -35 -85
0 c-84 0 -85 0 -78 22 4 13 8 99 10 193 3 165 18 275 39 282 6 1 21 -33 34
-77 22 -72 29 -84 77 -125 65 -56 83 -58 44 -3 -36 50 -37 71 -5 160 14 38 23
74 19 79 -3 5 -1 9 4 9 10 0 32 44 32 66 0 12 -8 13 -34 9 -24 -5 -45 -1 -73
13 -58 30 -65 42 -54 91 5 22 7 41 4 41 -3 0 1 8 8 17 12 14 12 16 0 8 -11 -6
-13 -4 -8 8 3 9 -1 30 -10 48 -21 42 -8 83 27 87 21 2 29 -6 54 -53 16 -30 33
-55 38 -55 6 0 3 11 -6 25 -22 33 -20 38 7 24 l22 -12 -22 25 c-13 13 -23 27
-23 30 0 3 10 8 23 12 12 3 18 9 12 13 -14 11 -17 33 -5 33 6 0 10 17 11 38 0
20 4 46 9 57 6 13 7 3 3 -27 -5 -39 -3 -48 10 -48 31 0 48 13 67 51 23 44 26
75 8 82 -10 4 -10 6 0 6 9 1 12 60 12 261 0 223 -2 259 -15 254 -9 -4 -21 5
-32 23 -15 24 -24 28 -51 26 -19 -2 -42 2 -52 7 -13 7 -21 7 -26 -2 -4 -7 -3
-8 4 -4 7 4 12 3 12 -2 0 -5 20 -13 45 -16 24 -4 47 -12 51 -18 4 -6 -1 -8
-12 -4 -11 3 -41 10 -69 16 -60 14 -75 25 -75 59 1 26 1 26 13 4 10 -18 12 -9
8 58 -2 64 1 91 19 140 28 73 24 155 -9 190 -12 13 -21 19 -21 13 0 -5 -5 -2
-10 6 -7 10 -10 11 -10 2 0 -8 -8 -10 -22 -7 -60 14 -156 12 -181 -4z m13 -18
c0 -13 -17 -35 -26 -35 -5 0 -8 -4 -6 -10 1 -5 -2 -7 -8 -3 -6 4 -4 15 6 31
16 23 34 32 34 17z m-9 -75 c-3 -21 -6 -26 -9 -15 -3 17 3 47 11 47 2 0 1 -15
-2 -32z m138 -420 c5 -26 5 -45 0 -42 -4 2 -26 1 -49 -2 l-41 -7 6 -41 c4 -22
13 -48 21 -57 8 -8 14 -22 14 -30 -1 -10 -4 -9 -11 4 -6 9 -15 14 -21 11 -6
-4 -8 -2 -4 4 3 6 2 13 -4 17 -5 3 -10 1 -10 -6 0 -7 -3 -10 -6 -6 -3 3 -8 29
-10 58 -2 40 2 59 17 80 11 15 26 44 35 64 8 20 19 33 24 30 5 -3 12 0 17 7 5
9 9 5 11 -12 2 -14 7 -46 11 -72z m4 -92 c-4 -8 -5 -53 -1 -98 9 -115 8 -447
-1 -423 -13 31 -31 228 -33 355 -1 89 2 124 15 154 10 22 20 36 23 33 3 -3 2
-12 -3 -21z m-2778 -47 c11 -17 -1 -21 -15 -4 -8 9 -8 15 -2 15 6 0 14 -5 17
-11z m-45 -29 c0 -5 -4 -10 -10 -10 -5 0 -10 5 -10 10 0 6 5 10 10 10 6 0 10
-4 10 -10z m2493 -170 c3 -41 3 -69 0 -62 -4 10 -8 9 -18 -5 -12 -17 -14 -16
-21 11 -5 20 -3 31 4 34 7 2 12 23 12 46 0 36 8 63 15 54 1 -2 5 -37 8 -78z
m288 -86 c1 -87 5 -179 9 -202 10 -54 -8 -42 -20 14 -14 61 -23 342 -11 324 9
-12 11 -11 11 9 0 13 2 22 5 19 3 -3 6 -77 6 -164z m-5401 66 c0 -5 -4 -10
-10 -10 -5 0 -10 5 -10 10 0 6 5 10 10 10 6 0 10 -4 10 -10z m5550 -20 c0 -5
-4 -10 -10 -10 -5 0 -10 5 -10 10 0 6 5 10 10 10 6 0 10 -4 10 -10z m-2077
-55 c-3 -9 -8 -14 -10 -11 -3 3 -2 9 2 15 9 16 15 13 8 -4z m1632 -5 c19 -8
19 -9 -2 -9 -12 -1 -25 4 -28 9 -7 12 2 12 30 0z m-3795 -71 c-16 -35 -30 -75
-30 -88 0 -21 2 -22 18 -10 15 12 16 12 6 -1 -6 -8 -17 -32 -24 -53 -12 -39
-34 -67 -53 -67 -6 0 -5 5 4 13 8 6 12 11 10 10 -2 -2 -10 2 -18 8 -9 8 -11
24 -6 53 6 41 40 99 53 91 4 -2 20 23 35 55 16 33 30 58 32 56 2 -2 -10 -32
-27 -67z m4357 49 c-3 -8 -6 -5 -6 6 -1 11 2 17 5 13 3 -3 4 -12 1 -19z
m-2267 -78 c-16 -40 -23 -33 -9 9 6 18 14 30 17 27 2 -3 -1 -19 -8 -36z m50
10 c0 -5 -4 -10 -10 -10 -5 0 -10 5 -10 10 0 6 5 10 10 10 6 0 10 -4 10 -10z
m-2976 -121 c6 -84 5 -86 -27 -136 -17 -28 -58 -79 -91 -114 l-59 -64 6 80 5
80 -18 -45 c-10 -25 -16 -48 -14 -51 2 -3 -3 -6 -11 -6 -19 0 -19 -1 6 58 21
49 21 50 3 65 -16 14 -15 14 8 0 20 -12 26 -12 22 -3 -7 19 145 242 157 229 3
-4 9 -46 13 -93z m276 91 c0 -5 -4 -10 -10 -10 -5 0 -10 5 -10 10 0 6 5 10 10
10 6 0 10 -4 10 -10z m-592 -32 c7 -7 12 -27 12 -44 0 -18 4 -44 10 -58 7 -19
6 -27 -5 -33 -17 -10 -65 -93 -65 -114 0 -8 15 -23 34 -32 l34 -16 -3 -129 -4
-129 -46 -94 c-25 -52 -48 -108 -51 -124 -7 -43 -19 -50 -19 -12 -1 65 -17
128 -31 123 -11 -4 -14 5 -14 35 l0 40 32 -22 c29 -21 31 -21 24 -3 -25 61
-46 130 -46 151 0 19 5 23 32 23 l33 0 -33 23 c-78 54 -104 203 -61 347 l24
80 66 0 c37 0 70 -5 77 -12z m3215 -30 c-3 -24 -12 -65 -21 -93 -11 -36 -16
-98 -17 -217 -1 -119 -6 -172 -15 -183 -7 -8 -9 -15 -4 -15 5 0 4 -4 -2 -8 -6
-4 -22 -27 -37 -52 -32 -54 -33 -44 -8 100 16 90 20 101 28 80 8 -19 9 -5 5
54 -4 63 -2 77 8 71 10 -6 12 0 7 30 -3 21 0 70 9 109 14 70 43 166 49 166 2
0 1 -19 -2 -42z m2177 -33 c0 -8 -2 -15 -4 -15 -2 0 -6 7 -10 15 -3 8 -1 15 4
15 6 0 10 -7 10 -15z m-2870 -135 c0 -5 -5 -10 -11 -10 -5 0 -7 5 -4 10 3 6 8
10 11 10 2 0 4 -4 4 -10z m-1832 -121 c-1 -23 -8 -43 -15 -46 -7 -3 -10 -9 -7
-14 3 -5 0 -9 -5 -9 -9 0 -9 31 0 50 4 9 7 24 8 43 0 9 6 17 11 17 6 0 10 -18
8 -41z m2839 -6 c-3 -10 -5 -4 -5 12 0 17 2 24 5 18 2 -7 2 -21 0 -30z m-3475
-51 c-2 -31 2 -63 7 -71 10 -15 3 -51 -10 -51 -5 0 -9 44 -9 97 0 53 3 93 7
90 3 -4 6 -33 5 -65z m1728 30 c0 -12 -49 -37 -56 -29 -11 10 17 37 37 37 11
0 19 -4 19 -8z m-1086 -57 c-4 -8 -11 -12 -16 -9 -6 4 -5 10 3 15 19 12 19 11
13 -6z m2040 -6 c-3 -5 -10 -7 -15 -3 -5 3 -7 10 -3 15 3 5 10 7 15 3 5 -3 7
-10 3 -15z m478 -42 c1 -20 -1 -39 -5 -43 -4 -4 -7 14 -7 41 0 56 8 57 12 2z
m-2352 13 c0 -5 -4 -10 -10 -10 -5 0 -10 5 -10 10 0 6 5 10 10 10 6 0 10 -4
10 -10z m2305 -139 c-30 -59 -43 -68 -19 -13 9 20 21 50 28 66 7 17 12 22 14
13 2 -9 -8 -38 -23 -66z m345 59 c0 -5 -5 -10 -11 -10 -5 0 -7 5 -4 10 3 6 8
10 11 10 2 0 4 -4 4 -10z m1140 0 c0 -5 -4 -10 -10 -10 -5 0 -10 5 -10 10 0 6
5 10 10 10 6 0 10 -4 10 -10z m-4023 -92 c-3 -8 -6 -5 -6 6 -1 11 2 17 5 13 3
-3 4 -12 1 -19z m1939 -41 c26 10 13 -156 -27 -329 l-11 -48 -44 0 c-24 0 -44
2 -44 4 0 3 13 42 28 88 16 46 34 111 42 145 7 35 16 60 21 58 4 -3 4 8 -1 25
-5 18 -5 30 1 30 5 0 10 19 11 43 1 35 2 37 5 10 3 -23 8 -30 19 -26z m-1949
-24 c-3 -10 -5 -2 -5 17 0 19 2 27 5 18 2 -10 2 -26 0 -35z m2050 -135 c-3
-73 -11 -152 -17 -175 -12 -41 -14 -43 -51 -43 -22 0 -39 4 -39 8 0 5 9 35 20
66 11 32 19 61 18 64 -1 4 2 16 6 27 20 52 26 74 32 120 6 43 17 64 33 65 2 0
1 -60 -2 -132z m-2351 96 c16 -4 23 -16 28 -45 3 -21 11 -39 17 -39 5 0 7 -5
3 -11 -3 -6 -8 -41 -9 -78 -1 -36 -6 -83 -10 -103 l-7 -38 -132 0 -131 0 -87
71 c-49 38 -88 72 -88 75 0 3 7 18 15 33 13 26 97 91 116 91 4 0 13 -24 19
-54 14 -66 33 -96 51 -79 10 10 10 26 0 79 -12 56 -11 68 0 75 23 14 34 10 14
-5 -18 -13 -18 -15 0 -81 16 -61 19 -66 32 -50 7 11 13 23 13 28 0 4 4 6 9 2
5 -3 13 0 17 6 4 8 3 9 -4 5 -18 -11 -14 0 14 47 l27 42 -27 -24 -26 -24 0 35
c0 19 3 38 7 41 8 8 110 9 139 1z m-156 -20 c0 -8 -5 -12 -10 -9 -6 4 -8 11
-5 16 9 14 15 11 15 -7z m2672 -121 c13 -43 26 -79 30 -81 5 -2 8 -11 9 -20 0
-10 6 -1 14 18 l13 35 10 -27 c13 -33 12 -70 -3 -59 -19 14 -40 6 -43 -16 -3
-21 -9 -23 -68 -23 -44 0 -63 3 -59 11 4 6 -2 17 -14 25 -12 8 -21 21 -21 29
0 14 41 42 49 34 8 -7 20 51 27 134 7 80 8 81 20 50 8 -17 24 -67 36 -110z
m623 117 c3 -5 1 -10 -4 -10 -6 0 -11 5 -11 10 0 6 2 10 4 10 3 0 8 -4 11 -10z
m-2923 -192 c24 -102 25 -98 -32 -98 l-50 0 0 58 c0 31 3 81 7 110 l6 54 26
-26 c17 -17 31 -50 43 -98z m-657 92 c3 -5 1 -10 -4 -10 -6 0 -11 5 -11 10 0
6 2 10 4 10 3 0 8 -4 11 -10z m3240 -90 c3 -19 7 -50 10 -68 l6 -32 -66 0 -66
0 8 38 c4 20 7 52 7 70 0 18 3 28 6 21 4 -6 10 2 13 19 5 25 10 29 31 25 18
-4 26 -1 27 8 1 20 19 -40 24 -81z m-2263 74 c33 -6 36 -10 40 -43 3 -20 3
-57 0 -84 l-5 -47 -89 0 c-86 0 -89 1 -98 26 -20 51 -8 125 24 146 13 9 78 10
128 2z m1488 -14 c0 -5 -4 -10 -10 -10 -5 0 -10 5 -10 10 0 6 5 10 10 10 6 0
10 -4 10 -10z m1127 -47 c-3 -10 -5 -4 -5 12 0 17 2 24 5 18 2 -7 2 -21 0 -30z
m-3713 -4 c-3 -5 -10 -7 -15 -3 -5 3 -7 10 -3 15 3 5 10 7 15 3 5 -3 7 -10 3
-15z m2549 -109 c-11 -12 -23 30 -22 80 l1 55 13 -65 c7 -36 11 -67 8 -70z
m-2373 75 c5 3 12 0 16 -6 5 -8 3 -9 -6 -4 -10 6 -12 0 -7 -29 l6 -37 -46 3
c-44 3 -47 5 -55 37 -11 40 -3 52 17 25 13 -17 14 -17 15 -1 0 9 5 16 11 15 6
-2 14 3 16 10 3 6 0 12 -7 12 -6 0 -8 5 -4 11 4 8 12 2 21 -15 8 -15 18 -24
23 -21z m1128 25 c17 -11 32 -24 32 -29 0 -4 3 -23 6 -40 l7 -31 -70 0 c-65 0
-71 2 -82 26 -12 27 -6 49 10 39 5 -4 9 -2 9 4 0 5 -6 12 -12 14 -7 3 -3 6 10
6 12 1 25 8 28 16 8 20 23 19 62 -5z m2551 -62 c6 -17 9 -34 6 -36 -9 -9 -23
11 -30 41 -10 38 10 35 24 -5z m-1340 -28 c0 -9 -4 -8 -9 5 -5 11 -9 27 -9 35
0 9 4 8 9 -5 5 -11 9 -27 9 -35z m711 20 c0 -5 -5 -10 -11 -10 -5 0 -7 5 -4
10 3 6 8 10 11 10 2 0 4 -4 4 -10z"/>
<path d="M5684 1605 c-18 -14 -18 -14 4 -8 12 3 22 9 22 14 0 12 -3 11 -26 -6z"/>
<path d="M575 2133 c-33 -8 -40 -21 -22 -41 10 -11 15 -26 11 -36 -4 -10 -1
-16 9 -16 19 0 17 -58 -3 -70 -8 -5 -11 -12 -7 -17 4 -4 17 -1 29 6 11 7 17 8
13 2 -3 -6 2 -11 12 -11 10 0 30 -13 45 -30 14 -16 24 -30 22 -30 -3 0 1 -6 8
-14 14 -15 20 -13 24 7 10 47 15 62 24 71 20 20 9 53 -30 97 -22 24 -43 54
-46 67 -6 22 -36 28 -89 15z"/>
<path d="M540 2081 c0 -5 5 -13 10 -16 6 -3 10 -2 10 4 0 5 -4 13 -10 16 -5 3
-10 2 -10 -4z"/>
<path d="M2874 2025 c4 -12 0 -16 -17 -15 -36 3 -49 1 -43 -9 3 -5 -5 -11 -19
-13 -14 -3 -26 0 -29 8 -3 8 -10 14 -16 14 -6 0 -9 -3 -7 -7 3 -5 -11 -9 -31
-10 -27 -2 -33 0 -22 7 10 7 -8 8 -57 5 -40 -2 -75 0 -78 6 -10 16 -25 10 -25
-10 0 -17 11 -19 108 -24 59 -3 123 -6 142 -6 19 -1 36 -5 38 -10 2 -5 11 -7
21 -4 28 7 63 -56 61 -109 -1 -24 -1 -73 -1 -109 1 -64 1 -65 36 -82 l35 -17
0 38 c0 27 3 33 10 22 5 -8 10 -30 10 -47 0 -18 5 -33 11 -33 8 0 9 12 4 38
-4 20 -9 53 -11 72 -6 44 -14 52 -14 14 0 -22 -3 -26 -10 -14 -16 25 -12 68 8
73 14 4 15 5 1 6 -18 1 -29 29 -29 71 0 17 3 21 9 12 7 -11 10 -10 15 3 3 9 6
27 6 40 0 13 4 27 10 30 15 9 523 -34 750 -65 41 -5 127 -20 190 -34 63 -13
117 -22 119 -19 23 19 -219 92 -359 107 -30 4 -76 9 -101 12 -155 17 -224 20
-231 10 -6 -8 -8 -8 -8 0 0 15 -58 22 -228 30 -75 4 -145 11 -155 16 -10 5
-36 11 -59 14 -34 4 -40 3 -34 -11z m98 -53 c9 -9 9 -12 1 -12 -7 0 -14 -12
-16 -27 -4 -28 -4 -28 -6 3 0 16 -6 35 -12 41 -9 9 -7 11 5 9 9 -1 22 -8 28
-14z"/>
<path d="M240 2017 c-22 -8 -41 -25 -54 -47 l-19 -35 31 29 c40 38 53 27 18
-15 -15 -17 -25 -33 -23 -35 2 -3 25 5 51 17 28 12 80 23 124 26 l76 6 -55 18
c-30 10 -65 18 -78 18 -16 1 -21 5 -17 16 6 18 -6 18 -54 2z"/>
<path d="M3570 2015 c0 -8 7 -15 15 -15 8 0 15 7 15 15 0 8 -7 15 -15 15 -8 0
-15 -7 -15 -15z"/>
<path d="M5181 2004 c-7 -8 -11 -18 -8 -21 9 -9 48 8 44 20 -5 17 -21 18 -36
1z"/>
<path d="M1943 1903 c-7 -19 -18 -33 -44 -61 -9 -9 -20 -38 -23 -64 -4 -26
-11 -50 -15 -53 -5 -2 -8 -16 -8 -30 0 -26 0 -26 18 -6 11 12 16 27 13 38 -5
15 -4 16 5 3 9 -12 11 -11 11 8 0 12 4 22 9 22 5 0 7 18 5 40 -2 25 0 39 6 35
6 -4 7 1 3 11 -4 10 -2 15 4 11 5 -3 17 2 25 12 12 14 13 22 5 31 -9 8 -8 10
6 5 10 -4 17 -2 17 4 0 18 -30 13 -37 -6z"/>
<path d="M1523 1863 c-29 -30 -36 -58 -21 -82 16 -26 54 -28 60 -3 2 9 0 37
-6 62 l-11 45 -22 -22z"/>
<path d="M524 1855 c-4 -8 -10 -13 -14 -10 -5 3 -12 0 -16 -6 -4 -8 -3 -9 4
-5 15 9 15 0 0 -27 -11 -21 -11 -21 -19 -2 -6 15 -8 10 -8 -20 l-1 -40 19 31
c31 50 52 94 46 94 -3 0 -8 -7 -11 -15z"/>
<path d="M2971 1834 c0 -11 3 -14 6 -6 3 7 2 16 -1 19 -3 4 -6 -2 -5 -13z"/>
<path d="M5873 1838 c2 -7 -2 -20 -10 -29 -7 -9 -16 -27 -18 -39 -5 -25 12
-53 26 -44 5 3 9 0 9 -5 0 -6 5 -11 11 -11 5 0 8 4 5 9 -3 4 5 6 19 4 18 -4
27 1 39 25 15 29 15 33 -5 66 -17 29 -27 36 -51 36 -19 0 -28 -4 -25 -12z"/>
<path d="M22 1828 c-7 -7 -12 -40 -12 -80 0 -58 3 -69 21 -79 17 -9 23 -8 30
2 12 20 11 28 -6 45 -8 9 -15 21 -15 27 0 7 4 6 10 -3 5 -8 10 -10 10 -4 0 6
-7 17 -16 25 -10 8 -14 24 -12 46 2 18 4 33 3 33 -1 0 -6 -5 -13 -12z"/>
<path d="M596 1742 c-3 -5 1 -9 9 -9 8 0 15 4 15 9 0 4 -4 8 -9 8 -6 0 -12 -4
-15 -8z"/>
<path d="M4076 1735 c-8 -8 -20 -15 -26 -15 -24 0 -71 -32 -66 -45 8 -21 -28
-46 -75 -50 -23 -3 -47 -9 -53 -15 -5 -5 -22 -10 -37 -10 -28 0 -54 -22 -41
-34 4 -4 0 -6 -8 -4 -8 2 -18 8 -22 13 -4 6 -8 -30 -8 -78 l0 -88 29 20 c34
24 54 26 70 7 7 -8 44 -16 96 -21 47 -4 87 -11 91 -16 11 -19 22 -8 35 36 7
25 19 45 25 45 16 0 26 43 12 51 -7 4 -8 17 -3 35 5 16 7 39 6 51 -1 11 2 24
8 27 6 4 6 18 0 38 -5 18 -6 41 -3 50 7 22 -9 23 -30 3z m-256 -216 c0 -5 -7
-9 -15 -9 -15 0 -20 12 -9 23 8 8 24 -1 24 -14z m210 -64 c0 -8 -4 -15 -10
-15 -5 0 -10 7 -10 15 0 8 5 15 10 15 6 0 10 -7 10 -15z"/>
<path d="M4415 1691 c-7 -50 -9 -52 -20 -30 -13 23 -13 23 -10 -6 1 -17 6 -38
10 -47 4 -9 5 -25 2 -35 -3 -12 -5 -8 -6 10 -1 38 -21 24 -21 -14 0 -22 4 -29
16 -27 13 2 17 -6 20 -37 2 -32 1 -35 -6 -15 l-8 25 -1 -25 c-1 -31 23 -65 39
-55 9 6 10 33 5 100 -6 79 -4 97 11 120 20 31 62 55 101 56 l28 1 -32 10 c-26
9 -39 7 -72 -9 l-40 -20 -4 26 c-2 18 -6 9 -12 -28z"/>
<path d="M1892 1699 c-13 -16 -21 -36 -18 -44 13 -34 37 -6 41 48 2 15 2 27 1
26 0 0 -12 -13 -24 -30z m18 -19 c0 -5 -5 -10 -11 -10 -5 0 -7 5 -4 10 3 6 8
10 11 10 2 0 4 -4 4 -10z"/>
<path d="M279 1695 c17 -33 31 -51 31 -40 0 6 -10 21 -21 35 -13 17 -17 18
-10 5z"/>
<path d="M174 1671 c-4 -17 -10 -31 -15 -31 -5 0 -4 -12 2 -27 5 -14 8 -31 7
-37 -2 -6 12 -27 30 -46 29 -30 33 -32 27 -12 -4 13 -2 29 5 37 8 9 8 15 2 15
-5 0 -8 9 -5 19 3 11 -2 30 -11 43 -9 12 -16 30 -16 40 0 31 -20 30 -26 -1z"/>
<path d="M3444 1655 c-21 -28 -29 -33 -40 -24 -11 9 -14 8 -14 -2 0 -12 -2
-12 -9 0 -7 10 -10 10 -13 1 -3 -10 -11 -9 -35 3 -24 13 -34 14 -47 4 -23 -17
-10 -47 19 -47 18 0 25 -7 30 -31 l7 -31 18 30 c17 27 48 52 65 52 3 0 -2 -15
-11 -32 -10 -18 -19 -46 -21 -62 -1 -17 -13 -41 -26 -55 l-22 -25 28 17 27 17
1 -57 c1 -53 2 -55 9 -23 5 19 13 49 18 65 10 29 10 29 11 -15 1 -29 4 -40 10
-32 6 10 10 8 14 -10 10 -37 8 -66 -5 -72 -7 -3 12 -4 42 -2 61 4 132 -9 170
-32 19 -12 22 -12 13 -2 -7 8 -13 27 -13 43 0 25 2 28 15 17 12 -10 15 -10 15
1 1 10 4 8 11 -3 5 -10 14 -18 19 -18 15 0 22 39 10 57 -9 15 -10 13 -5 -12 4
-16 3 -26 -2 -22 -4 5 -8 50 -8 100 0 68 -3 91 -12 90 -7 -2 -13 2 -13 7 0 6
5 10 10 10 33 0 -19 77 -57 85 -12 2 -31 9 -43 15 -20 11 -83 4 -133 -16 -15
-5 -16 -3 -7 20 13 35 6 33 -26 -9z m-84 -65 c0 -5 -5 -10 -11 -10 -5 0 -7 5
-4 10 3 6 8 10 11 10 2 0 4 -4 4 -10z"/>
<path d="M3558 1683 c6 -2 18 -2 25 0 6 3 1 5 -13 5 -14 0 -19 -2 -12 -5z"/>
<path d="M3486 1671 c-4 -5 3 -7 14 -4 23 6 26 13 6 13 -8 0 -17 -4 -20 -9z"/>
<path d="M10 1666 c0 -2 9 -23 19 -47 10 -24 22 -69 26 -99 3 -30 9 -68 12
-85 10 -53 -7 -20 -24 46 -8 35 -19 68 -24 74 -5 5 -9 -74 -9 -188 0 -108 3
-197 6 -197 3 0 15 5 26 11 17 9 23 8 30 -5 14 -24 28 -19 28 10 0 22 -10 58
-38 144 -3 8 -4 18 -4 23 1 4 -2 7 -7 7 -5 0 -7 9 -4 20 3 11 9 18 13 15 18
-11 20 18 8 133 -11 110 -14 121 -35 131 -13 6 -23 9 -23 7z"/>
<path d="M1911 1637 c-24 -29 -24 -30 -2 -18 12 7 25 19 28 27 10 26 -1 22
-26 -9z"/>
<path d="M1942 1631 c-13 -21 -36 -45 -50 -55 l-27 -17 33 5 34 6 -7 -43 c-6
-39 -5 -40 7 -18 21 38 38 38 38 -1 0 -19 -6 -40 -12 -47 -11 -10 -10 -12 2
-9 11 2 16 -8 20 -39 4 -35 11 -46 44 -68 25 -17 48 -25 63 -22 20 4 23 0 23
-27 0 -43 -20 -78 -50 -86 -125 -35 -140 -42 -140 -60 0 -10 -5 -20 -11 -22
-10 -3 -14 -60 -10 -138 l2 -25 20 25 c11 14 46 54 77 89 85 94 114 144 120
202 2 27 8 49 12 49 4 0 10 -25 14 -56 5 -41 2 -64 -9 -86 -12 -25 -12 -28 0
-18 22 18 55 116 55 163 0 24 6 49 13 56 10 12 8 13 -8 6 -58 -23 -105 -28
-130 -15 -31 17 -23 31 14 24 17 -4 40 0 57 9 l29 16 -44 -2 c-41 -2 -45 0
-58 31 -16 39 -9 42 11 5 l15 -28 1 33 c0 17 5 32 10 32 6 0 10 -11 10 -25 0
-34 12 -31 35 7 17 29 19 30 26 12 6 -16 8 -14 14 14 4 17 11 32 16 32 5 0 9
8 9 17 0 15 2 14 15 -3 22 -29 18 3 -5 46 l-19 35 -1 -37 c0 -20 -4 -40 -10
-43 -6 -4 -10 5 -10 20 0 35 -17 23 -26 -18 -4 -17 -8 -27 -10 -22 -2 6 -8 30
-14 54 -6 23 -14 40 -17 37 -3 -3 -12 2 -20 12 -8 9 -12 13 -10 7 3 -5 -1 -23
-9 -40 l-14 -30 6 35 c5 35 5 35 -10 10 -19 -32 -30 -29 -37 12 -5 28 -7 30
-13 13 -24 -62 -23 -62 -32 -18 l-9 41 -23 -37z m88 -116 c0 -16 -6 -25 -16
-25 -10 0 -12 4 -7 13 4 6 8 15 9 20 3 15 4 17 9 17 3 0 5 -11 5 -25z"/>
<path d="M961 1643 c0 -12 -4 -30 -7 -40 -5 -17 -5 -17 6 0 6 10 9 28 7 40 -4
22 -4 22 -6 0z"/>
<path d="M1371 1641 c-19 -19 -29 -61 -15 -61 3 0 17 9 31 20 33 26 88 26 130
0 40 -24 52 -46 62 -118 l9 -57 1 67 c0 37 5 78 11 92 6 17 6 27 -2 32 -7 5
-8 3 -3 -6 6 -9 4 -11 -4 -6 -7 5 -10 15 -7 23 3 8 1 11 -4 8 -6 -3 -10 -2
-10 3 0 4 -35 8 -77 7 -43 -1 -83 3 -90 8 -7 5 -19 1 -32 -12z"/>
<path d="M5342 1621 c-10 -6 -10 -10 3 -21 12 -10 19 -10 27 -2 9 9 9 12 -1
12 -7 0 -9 5 -6 10 7 12 -5 13 -23 1z"/>
<path d="M2240 1595 c0 -5 5 -17 10 -25 5 -8 10 -10 10 -5 0 6 -5 17 -10 25
-5 8 -10 11 -10 5z"/>
<path d="M3385 1570 c-10 -11 -14 -20 -9 -20 5 0 15 9 22 20 7 11 11 20 9 20
-2 0 -12 -9 -22 -20z"/>
<path d="M3135 1520 c-55 -34 -56 -36 -38 -83 12 -33 21 -43 39 -45 13 -1 24
2 24 6 0 5 7 17 16 28 8 10 13 13 9 7 -4 -8 -1 -11 9 -7 9 3 12 12 8 22 -4 13
-3 15 9 7 22 -16 53 -12 57 7 2 12 -12 28 -44 48 -55 35 -50 34 -89 10z m52
-52 c-3 -8 -6 -5 -6 6 -1 11 2 17 5 13 3 -3 4 -12 1 -19z"/>
<path d="M5135 1482 l-8 -62 -21 23 c-20 22 -62 34 -50 15 3 -4 0 -8 -6 -8 -7
0 -10 -7 -6 -15 3 -8 2 -15 -3 -15 -4 0 -18 -9 -30 -19 -17 -15 -22 -31 -23
-71 -1 -46 -3 -50 -15 -34 -7 10 -14 23 -14 28 -2 20 -28 -188 -28 -229 -1
-23 -14 -67 -31 -103 -16 -35 -25 -60 -20 -57 6 3 10 -4 11 -17 0 -13 6 -2 13
25 16 59 26 70 26 29 0 -68 24 -84 34 -22 3 22 10 40 15 40 10 0 -2 -79 -17
-107 -10 -19 -9 -20 8 -16 11 3 31 18 44 33 l23 28 13 -24 c12 -22 33 -34 28
-16 -2 9 42 82 49 82 3 0 3 -20 0 -45 -4 -25 -5 -45 -3 -45 2 0 12 17 22 38
18 35 19 36 23 12 3 -19 8 -9 22 40 19 65 25 114 10 75 -7 -17 -9 -15 -13 12
-2 18 -1 30 4 27 11 -7 10 14 -2 37 -6 10 -8 19 -6 19 3 0 12 -13 21 -30 17
-33 20 -96 5 -134 -13 -36 -4 -32 20 7 11 17 20 48 20 67 0 38 -33 137 -51
154 -8 8 -8 3 1 -13 8 -16 8 -21 1 -17 -6 4 -20 25 -32 47 -17 35 -19 52 -14
137 3 53 2 117 -3 142 l-9 45 -8 -63z m-32 -77 c-7 -21 -13 -19 -13 6 0 11 4
18 10 14 5 -3 7 -12 3 -20z m-36 -482 c-3 -10 -5 -4 -5 12 0 17 2 24 5 18 2
-7 2 -21 0 -30z"/>
<path d="M1366 1514 c-10 -10 -16 -33 -16 -65 0 -31 -4 -48 -10 -44 -13 8 -13
10 5 -49 8 -27 15 -67 15 -88 0 -31 -5 -41 -24 -49 -21 -10 -23 -14 -13 -31 7
-10 34 -30 61 -44 46 -23 53 -24 92 -13 51 15 62 23 97 70 l27 36 -27 19 c-16
10 -32 17 -36 16 -5 -1 -6 2 -3 7 3 5 -3 20 -15 32 -15 18 -19 19 -15 7 3 -10
1 -18 -4 -18 -6 0 -10 8 -10 19 0 10 -7 32 -15 47 -12 24 -15 26 -16 9 0 -14
-3 -11 -11 10 -5 17 -13 39 -18 50 -5 11 -14 37 -20 58 -13 41 -21 45 -44 21z
m15 -261 c-9 -16 -10 -14 -11 12 0 21 3 26 11 18 8 -8 8 -16 0 -30z"/>
<path d="M2201 1504 c0 -11 3 -14 6 -6 3 7 2 16 -1 19 -3 4 -6 -2 -5 -13z"/>
<path d="M4540 1503 c-11 -3 -22 -31 -35 -90 -24 -113 -37 -148 -63 -176 -32
-34 -49 -46 -56 -40 -3 4 -6 -2 -6 -13 0 -10 -7 -28 -15 -38 -18 -23 -19 -18
-5 21 l10 28 -25 -28 c-32 -36 -48 -98 -40 -158 8 -60 25 -74 26 -22 1 21 7
-12 14 -74 7 -69 18 -121 28 -137 13 -19 14 -24 3 -20 -19 7 -49 -70 -41 -107
4 -18 2 -29 -4 -29 -6 0 -11 -5 -11 -11 0 -5 6 -7 13 -4 6 4 4 0 -7 -9 -14
-12 -19 -31 -21 -83 -2 -37 -1 -56 2 -41 2 16 9 28 15 28 6 0 8 -10 4 -25 -5
-18 -2 -25 8 -25 10 0 13 -6 10 -15 -4 -8 -12 -15 -20 -15 -8 0 -14 -8 -14
-17 0 -15 2 -16 10 -3 5 8 10 10 10 5 0 -6 9 -11 20 -11 15 0 20 7 21 26 0 17
3 20 7 10 8 -16 87 -26 96 -11 3 4 -8 7 -25 6 -38 -2 -26 8 27 23 59 17 114
16 114 -3 0 -8 -11 -17 -25 -21 -26 -6 -32 -18 -15 -29 6 -3 13 1 16 9 4 9 15
14 27 12 12 -2 27 1 34 6 8 6 15 2 23 -13 9 -16 14 -19 20 -8 7 10 11 10 23 0
11 -8 17 -9 22 -1 5 8 11 8 20 0 21 -17 31 10 24 70 l-6 55 -1 -64 c-2 -54 -4
-62 -17 -51 -8 6 -19 9 -24 6 -5 -4 -13 -1 -16 5 -4 5 -13 8 -21 5 -8 -3 -14
-1 -14 4 0 11 48 26 68 22 9 -2 12 7 11 30 -2 18 1 46 5 61 5 17 4 37 -3 50
-10 19 -10 18 -6 -13 4 -27 3 -30 -4 -15 -5 11 -10 40 -10 65 -1 26 -6 51 -11
56 -14 14 -26 119 -13 111 14 -9 27 94 27 203 -1 71 -5 95 -28 145 -22 50 -26
54 -23 27 2 -18 0 -29 -3 -25 -15 17 -30 105 -30 177 0 41 -5 78 -10 81 -6 4
-8 10 -5 15 8 13 -6 40 -21 40 -8 0 -14 5 -14 11 0 5 6 7 13 3 6 -4 4 2 -6 13
-17 19 -27 22 -57 16z m-122 -701 c2 -7 -5 -7 -22 1 -14 7 -26 18 -26 26 0 11
4 11 22 -1 12 -8 24 -20 26 -26z m249 -29 c-2 -16 -4 -5 -4 22 0 28 2 40 4 28
2 -13 2 -35 0 -50z m-25 33 c3 -16 1 -23 -7 -19 -7 2 -11 13 -8 24 7 25 10 24
15 -5z m-151 -20 c5 3 9 -12 8 -33 l-1 -38 -13 30 c-8 17 -14 37 -14 45 0 10
2 11 6 2 2 -6 9 -10 14 -6z m109 -27 c0 -5 -4 -9 -10 -9 -5 0 -10 7 -10 16 0
8 5 12 10 9 6 -3 10 -10 10 -16z m-65 1 c3 -6 -1 -7 -9 -4 -18 7 -21 14 -7 14
6 0 13 -4 16 -10z m27 -51 l-8 -44 -5 37 c-3 20 -1 34 3 32 4 -3 8 3 8 12 0
10 2 15 5 13 2 -3 1 -25 -3 -50z m-125 19 c-3 -8 -6 -5 -6 6 -1 11 2 17 5 13
3 -3 4 -12 1 -19z m257 -249 c-3 -5 -10 -7 -15 -3 -5 3 -7 10 -3 15 3 5 10 7
15 3 5 -3 7 -10 3 -15z"/>
<path d="M3045 1480 c4 -14 10 -38 15 -55 l8 -30 1 30 c0 17 -7 41 -15 55
l-15 25 6 -25z"/>
<path d="M5107 1473 c-4 -3 -7 -11 -7 -17 0 -6 5 -5 12 2 6 6 9 14 7 17 -3 3
-9 2 -12 -2z"/>
<path d="M422 1415 c-1 -13 3 -27 9 -30 6 -4 9 3 7 19 -5 34 -13 40 -16 11z"/>
<path d="M3080 1431 c0 -6 4 -13 10 -16 6 -3 7 1 4 9 -7 18 -14 21 -14 7z"/>
<path d="M2220 1400 c0 -5 4 -10 9 -10 6 0 13 5 16 10 3 6 -1 10 -9 10 -9 0
-16 -4 -16 -10z"/>
<path d="M441 1354 c0 -11 3 -14 6 -6 3 7 2 16 -1 19 -3 4 -6 -2 -5 -13z"/>
<path d="M3150 1352 c0 -5 3 -12 7 -16 15 -14 10 -37 -10 -51 -12 -8 -16 -15
-9 -15 10 0 10 -3 0 -14 -7 -8 -16 -12 -20 -9 -14 8 -12 -86 2 -123 8 -20 13
-21 46 -14 21 5 42 6 47 3 6 -3 7 -2 4 4 -6 9 32 49 44 46 3 -1 11 16 18 37 7
24 18 40 27 40 9 0 14 6 11 13 -2 6 -10 12 -18 12 -19 0 -79 64 -79 83 0 9 -7
6 -20 -9 l-20 -24 -6 23 c-6 21 -24 31 -24 14z m60 -32 c-8 -5 -11 -10 -7 -10
5 0 5 -5 2 -10 -4 -6 -11 -8 -16 -4 -12 7 8 34 25 34 6 0 4 -5 -4 -10z"/>
<path d="M1560 1334 c0 -13 -3 -14 -14 -5 -12 10 -13 8 -9 -8 3 -11 11 -26 19
-32 12 -9 14 -5 14 25 0 20 -2 36 -5 36 -3 0 -5 -7 -5 -16z"/>
<path d="M4325 1320 c3 -5 10 -10 16 -10 5 0 9 5 9 10 0 6 -7 10 -16 10 -8 0
-12 -4 -9 -10z"/>
<path d="M3468 1284 c-37 -20 -36 -29 1 -10 16 9 30 14 32 12 2 -2 27 -6 54
-9 49 -6 49 -6 20 8 -39 18 -73 18 -107 -1z"/>
<path d="M4216 1139 c-29 -23 -30 -27 -16 -63 8 -23 12 -25 34 -15 32 15 49
54 36 80 -13 24 -21 24 -54 -2z"/>
<path d="M4841 1086 c-9 -10 -8 -15 4 -20 10 -4 15 1 15 14 0 24 -4 25 -19 6z"/>
<path d="M4871 1073 c1 -16 5 -41 9 -58 l7 -30 11 28 c7 16 12 42 12 58 0 22
-5 29 -20 29 -15 0 -20 -6 -19 -27z"/>
<path d="M2066 1050 c-14 -22 -31 -40 -37 -40 -5 0 -8 -3 -6 -7 2 -5 -7 -19
-21 -33 -13 -14 -22 -19 -18 -13 10 18 16 53 9 53 -11 0 -113 -114 -113 -127
0 -7 -4 -13 -10 -13 -5 0 -9 -3 -8 -7 1 -5 -6 -21 -16 -36 -11 -15 -19 -41
-18 -58 0 -18 -4 -29 -13 -29 -13 0 -63 -92 -70 -129 -1 -9 -8 -36 -15 -61 -7
-25 -13 -92 -14 -150 -1 -103 0 -106 40 -190 39 -80 125 -192 138 -179 5 5
-31 90 -69 162 -9 16 -10 25 -3 21 8 -5 9 -1 4 12 -4 10 -10 64 -12 119 -2 65
-1 91 5 75 l9 -25 3 30 c1 17 2 36 2 44 -2 26 38 227 54 276 20 61 80 195 87
195 3 0 3 -8 0 -17 -3 -10 8 -2 25 17 44 50 105 140 99 145 -3 3 -17 -13 -32
-35z m-244 -560 c2 -22 0 -40 -4 -40 -5 0 -8 18 -8 40 0 22 2 40 4 40 2 0 6
-18 8 -40z"/>
<path d="M3311 1043 c-1 -29 27 -119 34 -111 2 2 -5 35 -15 73 -14 52 -18 62
-19 38z"/>
<path d="M3164 1043 c-9 -3 -9 -13 -1 -39 7 -23 15 -33 24 -29 10 3 13 -1 8
-14 -3 -11 -2 -22 3 -24 4 -3 8 18 8 48 -1 29 -3 52 -5 49 -2 -2 -9 0 -15 5
-6 4 -16 6 -22 4z"/>
<path d="M1701 1024 c0 -11 3 -14 6 -6 3 7 2 16 -1 19 -3 4 -6 -2 -5 -13z"/>
<path d="M2416 1014 c-4 -12 1 -25 15 -38 l21 -21 -7 25 c-13 45 -21 54 -29
34z"/>
<path d="M2568 1008 c-2 -13 -7 -22 -13 -21 -12 2 -39 -46 -31 -54 3 -4 1 -12
-5 -19 -7 -8 -6 -14 2 -20 7 -4 9 -3 5 4 -3 6 -2 13 4 17 6 4 8 10 6 14 -3 3
7 7 21 6 15 0 28 7 30 15 4 12 3 13 -5 1 -7 -9 -8 1 -5 33 6 46 -3 67 -9 24z"/>
<path d="M1136 995 c-3 -8 -1 -25 4 -37 l9 -23 0 22 c1 17 5 21 19 16 15 -6
15 -4 -2 15 -23 26 -22 26 -30 7z"/>
<path d="M1702 960 c0 -19 2 -27 5 -17 2 9 2 25 0 35 -3 9 -5 1 -5 -18z"/>
<path d="M2502 940 c0 -14 2 -19 5 -12 2 6 2 18 0 25 -3 6 -5 1 -5 -13z"/>
<path d="M4086 952 c-8 -14 -48 -192 -44 -201 2 -6 15 39 29 100 24 102 27
120 15 101z"/>
<path d="M4841 934 c0 -11 3 -14 6 -6 3 7 2 16 -1 19 -3 4 -6 -2 -5 -13z"/>
<path d="M3336 900 c4 -14 17 -49 30 -79 27 -60 28 -65 14 -56 -21 13 -9 -23
15 -45 37 -35 50 -14 24 35 -12 22 -37 69 -56 105 -19 36 -31 54 -27 40z"/>
<path d="M4322 855 c0 -16 2 -22 5 -12 2 9 2 23 0 30 -3 6 -5 -1 -5 -18z"/>
<path d="M4281 844 c-19 -24 -19 -54 0 -54 13 0 28 34 26 58 -2 27 -1 27 -26
-4z"/>
<path d="M5659 820 c-2 -36 -9 -55 -25 -67 -10 -7 -13 -13 -7 -13 5 0 14 -9
19 -19 8 -18 10 -18 24 -3 13 14 12 15 -2 10 -10 -4 -19 -1 -22 7 -7 18 7 27
31 19 13 -4 15 -3 4 4 -9 7 -10 11 -2 13 9 3 8 13 -3 34 -9 17 -16 23 -17 15z"/>
<path d="M4961 793 c14 -39 50 -95 56 -89 5 5 -55 116 -62 116 -3 0 0 -12 6
-27z"/>
<path d="M1686 801 c-3 -5 1 -42 10 -82 l17 -72 18 34 c9 19 13 36 8 37 -5 2
-9 8 -9 13 0 4 7 6 15 3 8 -4 15 -1 15 5 0 6 0 13 0 16 0 3 -2 4 -4 3 -2 -2
-14 9 -26 25 -22 28 -35 33 -44 18z"/>
<path d="M4289 768 c-22 -24 -39 -51 -39 -60 0 -31 -12 -48 -34 -48 -11 0 -28
-5 -36 -10 -13 -8 -13 -10 1 -10 9 0 33 -11 53 -25 20 -14 40 -25 44 -25 10 0
54 147 56 188 2 17 1 32 -2 32 -2 0 -22 -19 -43 -42z"/>
<path d="M3810 770 l-35 -7 35 -3 c45 -3 63 -1 75 11 10 10 -22 10 -75 -1z"/>
<path d="M4061 678 c1 -55 3 -66 9 -43 11 45 11 115 0 115 -6 0 -10 -30 -9
-72z"/>
<path d="M2268 723 c7 -3 16 -2 19 1 4 3 -2 6 -13 5 -11 0 -14 -3 -6 -6z"/>
<path d="M3781 714 c0 -11 3 -14 6 -6 3 7 2 16 -1 19 -3 4 -6 -2 -5 -13z"/>
<path d="M1682 635 c0 -16 2 -22 5 -12 2 9 2 23 0 30 -3 6 -5 -1 -5 -18z"/>
<path d="M3692 640 c-10 -17 -10 -20 3 -20 8 0 15 9 15 20 0 11 -1 20 -3 20
-1 0 -8 -9 -15 -20z"/>
<path d="M4041 533 c-1 -28 -3 -57 -4 -65 -2 -7 -2 -10 0 -6 2 4 21 -3 41 -15
l37 -21 -18 21 c-10 12 -27 48 -37 80 l-19 58 0 -52z"/>
<path d="M4878 523 c-2 -5 -1 -51 2 -103 l6 -95 2 103 c2 93 -1 115 -10 95z"/>
<path d="M1663 405 c0 -38 2 -53 4 -32 2 20 2 52 0 70 -2 17 -4 1 -4 -38z"/>
<path d="M1831 324 c0 -11 3 -14 6 -6 3 7 2 16 -1 19 -3 4 -6 -2 -5 -13z"/>
<path d="M1671 304 c0 -11 3 -14 6 -6 3 7 2 16 -1 19 -3 4 -6 -2 -5 -13z"/>
<path d="M1680 272 c0 -7 7 -26 15 -42 9 -17 15 -32 15 -35 1 -3 3 -10 5 -17
2 -7 6 -29 8 -48 4 -34 4 -33 5 7 1 26 -7 61 -23 95 -14 29 -25 47 -25 40z"/>
<path d="M4191 214 c0 -11 3 -14 6 -6 3 7 2 16 -1 19 -3 4 -6 -2 -5 -13z"/>
<path d="M5830 176 c0 -2 8 -10 18 -17 15 -13 16 -12 3 4 -13 16 -21 21 -21
13z"/>
<path d="M5860 134 c1 -17 47 -66 53 -57 4 6 -7 23 -23 38 -17 16 -30 25 -30
19z"/>
<path d="M30 65 c-10 -12 -10 -18 0 -30 16 -20 27 -19 32 3 10 37 -10 54 -32
27z"/>
<path d="M80 49 c0 -11 4 -18 10 -14 5 3 7 12 3 20 -7 21 -13 19 -13 -6z"/>
</g>
</svg>
